<mxfile host="Electron" modified="2022-12-21T12:28:58.687Z" agent="5.0 (Windows NT 10.0; Win64; x64) AppleWebKit/537.36 (KHTML, like Gecko) draw.io/18.0.1 Chrome/100.0.4896.143 Electron/18.2.0 Safari/537.36" etag="bhV_XDXm890ZwjFblVMO" compressed="false" version="18.0.1" type="device">
  <diagram id="3w6g5_Ta-V8lRmugiTsT" name="第 1 页">
    <mxGraphModel dx="1060" dy="1170" grid="0" gridSize="10" guides="1" tooltips="1" connect="1" arrows="1" fold="1" page="0" pageScale="1" pageWidth="827" pageHeight="1169" math="0" shadow="0">
      <root>
        <mxCell id="0" />
        <mxCell id="1" parent="0" />
        <mxCell id="GYIKJYMq1MzzK1BG4W0E-1" value="&lt;span style=&quot;font-size: 19px;&quot;&gt;首页搜索&lt;/span&gt;" style="text;html=1;strokeColor=none;fillColor=none;align=center;verticalAlign=middle;whiteSpace=wrap;rounded=0;fontSize=18;fontStyle=1" parent="1" vertex="1">
          <mxGeometry x="1033" y="-45" width="297" height="44" as="geometry" />
        </mxCell>
        <mxCell id="GYIKJYMq1MzzK1BG4W0E-2" value="" style="rounded=0;whiteSpace=wrap;html=1;fontSize=18;fillColor=#f5f5f5;strokeColor=#666666;fontStyle=1;fontColor=#333333;" parent="1" vertex="1">
          <mxGeometry x="540" y="103" width="268" height="392" as="geometry" />
        </mxCell>
        <mxCell id="GYIKJYMq1MzzK1BG4W0E-3" value="浏览器" style="text;html=1;strokeColor=none;fillColor=none;align=center;verticalAlign=middle;whiteSpace=wrap;rounded=0;fontSize=17;fontStyle=1" parent="1" vertex="1">
          <mxGeometry x="549" y="112.25" width="60" height="30" as="geometry" />
        </mxCell>
        <mxCell id="GYIKJYMq1MzzK1BG4W0E-6" value="" style="rounded=0;whiteSpace=wrap;html=1;fontSize=17;fillColor=#fff2cc;strokeColor=#d6b656;fontStyle=1" parent="1" vertex="1">
          <mxGeometry x="865" y="13" width="1028" height="590" as="geometry" />
        </mxCell>
        <mxCell id="GYIKJYMq1MzzK1BG4W0E-7" value="服务端" style="text;html=1;strokeColor=none;fillColor=none;align=center;verticalAlign=middle;whiteSpace=wrap;rounded=0;fontSize=17;fontStyle=1" parent="1" vertex="1">
          <mxGeometry x="872" y="21" width="60" height="30" as="geometry" />
        </mxCell>
        <mxCell id="GYIKJYMq1MzzK1BG4W0E-9" value="" style="text;html=1;strokeColor=#d79b00;fillColor=#ffe6cc;align=left;verticalAlign=top;whiteSpace=wrap;rounded=0;fontSize=17;fontStyle=1" parent="1" vertex="1">
          <mxGeometry x="895" y="70" width="242" height="381" as="geometry" />
        </mxCell>
        <mxCell id="Zatc0vboHGfkbghF3RjW-18" style="edgeStyle=orthogonalEdgeStyle;rounded=0;orthogonalLoop=1;jettySize=auto;html=1;exitX=-0.001;exitY=0.893;exitDx=0;exitDy=0;entryX=0.998;entryY=0.895;entryDx=0;entryDy=0;entryPerimeter=0;fontSize=17;strokeColor=default;strokeWidth=2;exitPerimeter=0;" parent="1" source="GYIKJYMq1MzzK1BG4W0E-14" target="GYIKJYMq1MzzK1BG4W0E-9" edge="1">
          <mxGeometry relative="1" as="geometry" />
        </mxCell>
        <mxCell id="GYIKJYMq1MzzK1BG4W0E-14" value="Service层" style="text;html=1;strokeColor=#82b366;fillColor=#d5e8d4;align=left;verticalAlign=top;whiteSpace=wrap;rounded=0;fontSize=17;fontStyle=1" parent="1" vertex="1">
          <mxGeometry x="1183" y="73" width="199" height="344" as="geometry" />
        </mxCell>
        <mxCell id="8VZ2lhoY9Nfm3T2TA_DG-27" style="edgeStyle=orthogonalEdgeStyle;rounded=0;orthogonalLoop=1;jettySize=auto;html=1;exitX=0.004;exitY=0.775;exitDx=0;exitDy=0;fontSize=17;strokeWidth=2;exitPerimeter=0;" parent="1" source="GYIKJYMq1MzzK1BG4W0E-16" edge="1">
          <mxGeometry relative="1" as="geometry">
            <mxPoint x="1376" y="375" as="targetPoint" />
          </mxGeometry>
        </mxCell>
        <mxCell id="GYIKJYMq1MzzK1BG4W0E-16" value="dao层" style="text;html=1;strokeColor=#6c8ebf;fillColor=#dae8fc;align=left;verticalAlign=top;whiteSpace=wrap;rounded=0;fontSize=17;fontStyle=1" parent="1" vertex="1">
          <mxGeometry x="1425" y="70" width="276" height="361" as="geometry" />
        </mxCell>
        <mxCell id="8VZ2lhoY9Nfm3T2TA_DG-22" style="edgeStyle=orthogonalEdgeStyle;rounded=0;orthogonalLoop=1;jettySize=auto;html=1;exitX=0.5;exitY=1;exitDx=0;exitDy=0;exitPerimeter=0;entryX=1.015;entryY=0.826;entryDx=0;entryDy=0;entryPerimeter=0;fontSize=17;strokeWidth=2;" parent="1" source="GYIKJYMq1MzzK1BG4W0E-20" target="GYIKJYMq1MzzK1BG4W0E-16" edge="1">
          <mxGeometry relative="1" as="geometry" />
        </mxCell>
        <mxCell id="GYIKJYMq1MzzK1BG4W0E-20" value="" style="shape=cylinder3;whiteSpace=wrap;html=1;boundedLbl=1;backgroundOutline=1;size=15.49022001378674;fontSize=17;fontStyle=1" parent="1" vertex="1">
          <mxGeometry x="1746" y="134.5" width="137" height="173" as="geometry" />
        </mxCell>
        <mxCell id="8VZ2lhoY9Nfm3T2TA_DG-3" value="web层" style="text;html=1;strokeColor=none;fillColor=none;align=left;verticalAlign=top;whiteSpace=wrap;rounded=0;fontSize=17;fontStyle=1" parent="1" vertex="1">
          <mxGeometry x="906" y="73" width="60" height="30" as="geometry" />
        </mxCell>
        <mxCell id="8VZ2lhoY9Nfm3T2TA_DG-6" value="FurnService.java&lt;br&gt;[接口]声明&lt;br&gt;分页相关方法&lt;br&gt;pageByName()" style="rounded=0;whiteSpace=wrap;html=1;labelBorderColor=none;fontSize=17;strokeColor=#999999;fontStyle=1;align=left;verticalAlign=top;" parent="1" vertex="1">
          <mxGeometry x="1203" y="114" width="159" height="98" as="geometry" />
        </mxCell>
        <mxCell id="8VZ2lhoY9Nfm3T2TA_DG-8" style="edgeStyle=orthogonalEdgeStyle;rounded=0;orthogonalLoop=1;jettySize=auto;html=1;exitX=0.5;exitY=0;exitDx=0;exitDy=0;fontSize=17;dashed=1;strokeWidth=2;" parent="1" source="8VZ2lhoY9Nfm3T2TA_DG-7" target="8VZ2lhoY9Nfm3T2TA_DG-6" edge="1">
          <mxGeometry relative="1" as="geometry" />
        </mxCell>
        <mxCell id="bZlDuSdulc7KowGW-_eb-1" style="edgeStyle=orthogonalEdgeStyle;rounded=0;orthogonalLoop=1;jettySize=auto;html=1;exitX=1;exitY=0.25;exitDx=0;exitDy=0;entryX=0;entryY=0.5;entryDx=0;entryDy=0;fontStyle=0;strokeWidth=2;" edge="1" parent="1" source="8VZ2lhoY9Nfm3T2TA_DG-7" target="8VZ2lhoY9Nfm3T2TA_DG-10">
          <mxGeometry relative="1" as="geometry" />
        </mxCell>
        <mxCell id="8VZ2lhoY9Nfm3T2TA_DG-7" value="FurnServiceImpl&lt;br&gt;.java实现类：&lt;br&gt;分页相关方法&lt;br&gt;pageByName()" style="rounded=0;whiteSpace=wrap;html=1;labelBorderColor=none;fontSize=17;strokeColor=#999999;align=left;fontStyle=1;verticalAlign=middle;" parent="1" vertex="1">
          <mxGeometry x="1205.56" y="264" width="153.88" height="116" as="geometry" />
        </mxCell>
        <mxCell id="8VZ2lhoY9Nfm3T2TA_DG-9" value="FurnDAO接口&lt;br&gt;getPageTotalCountByName()&lt;br&gt;getPageItemsByName()" style="rounded=0;whiteSpace=wrap;html=1;labelBorderColor=none;fontSize=17;strokeColor=#999999;fontStyle=1;align=left;verticalAlign=middle;" parent="1" vertex="1">
          <mxGeometry x="1443.5" y="112.25" width="239" height="67" as="geometry" />
        </mxCell>
        <mxCell id="8VZ2lhoY9Nfm3T2TA_DG-13" style="edgeStyle=orthogonalEdgeStyle;rounded=0;orthogonalLoop=1;jettySize=auto;html=1;exitX=0.5;exitY=0;exitDx=0;exitDy=0;entryX=0.5;entryY=1;entryDx=0;entryDy=0;dashed=1;fontSize=17;strokeWidth=2;" parent="1" source="8VZ2lhoY9Nfm3T2TA_DG-10" target="8VZ2lhoY9Nfm3T2TA_DG-9" edge="1">
          <mxGeometry relative="1" as="geometry" />
        </mxCell>
        <mxCell id="8VZ2lhoY9Nfm3T2TA_DG-14" style="edgeStyle=orthogonalEdgeStyle;rounded=0;orthogonalLoop=1;jettySize=auto;html=1;exitX=0.5;exitY=1;exitDx=0;exitDy=0;entryX=0.5;entryY=0;entryDx=0;entryDy=0;fontSize=17;strokeWidth=2;" parent="1" source="8VZ2lhoY9Nfm3T2TA_DG-10" target="8VZ2lhoY9Nfm3T2TA_DG-11" edge="1">
          <mxGeometry relative="1" as="geometry" />
        </mxCell>
        <mxCell id="8VZ2lhoY9Nfm3T2TA_DG-21" style="edgeStyle=orthogonalEdgeStyle;rounded=0;orthogonalLoop=1;jettySize=auto;html=1;exitX=1;exitY=0.5;exitDx=0;exitDy=0;entryX=0.01;entryY=0.184;entryDx=0;entryDy=0;entryPerimeter=0;fontSize=17;strokeWidth=2;" parent="1" source="8VZ2lhoY9Nfm3T2TA_DG-10" target="8VZ2lhoY9Nfm3T2TA_DG-20" edge="1">
          <mxGeometry relative="1" as="geometry" />
        </mxCell>
        <mxCell id="8VZ2lhoY9Nfm3T2TA_DG-10" value="FurnDAOImpl实现类&lt;br&gt;&lt;span style=&quot;text-align: left;&quot;&gt;getPageTotalCountByName()&lt;/span&gt;&lt;br style=&quot;text-align: left;&quot;&gt;&lt;span style=&quot;text-align: left;&quot;&gt;getPageItemsByName()&lt;/span&gt;" style="rounded=0;whiteSpace=wrap;html=1;labelBorderColor=none;fontSize=17;strokeColor=#999999;fontStyle=1;align=center;verticalAlign=middle;" parent="1" vertex="1">
          <mxGeometry x="1441" y="225.5" width="243" height="70" as="geometry" />
        </mxCell>
        <mxCell id="8VZ2lhoY9Nfm3T2TA_DG-11" value="BasicDAO[基础DAO]" style="rounded=0;whiteSpace=wrap;html=1;labelBorderColor=none;fontSize=17;strokeColor=#999999;align=center;fontStyle=1;verticalAlign=middle;" parent="1" vertex="1">
          <mxGeometry x="1475.5" y="339" width="174" height="45.5" as="geometry" />
        </mxCell>
        <mxCell id="8VZ2lhoY9Nfm3T2TA_DG-19" value="mysql" style="text;html=1;strokeColor=none;fillColor=none;align=center;verticalAlign=middle;whiteSpace=wrap;rounded=0;labelBorderColor=none;fontSize=17;fontStyle=1" parent="1" vertex="1">
          <mxGeometry x="1776.5" y="134.5" width="60" height="30" as="geometry" />
        </mxCell>
        <mxCell id="8VZ2lhoY9Nfm3T2TA_DG-20" value="furn表[家居表]&lt;br&gt;字段&lt;br&gt;id&lt;br&gt;name&lt;br&gt;marker..." style="rounded=0;whiteSpace=wrap;html=1;labelBorderColor=none;fontSize=17;strokeColor=#9673a6;fillColor=#e1d5e7;fontStyle=1;align=left;" parent="1" vertex="1">
          <mxGeometry x="1755.31" y="179.25" width="114.69" height="111.5" as="geometry" />
        </mxCell>
        <mxCell id="Zatc0vboHGfkbghF3RjW-1" value="entity包-提供Javabean" style="rounded=0;whiteSpace=wrap;html=1;labelBorderColor=none;fontSize=17;strokeColor=#b85450;align=left;fontStyle=1;verticalAlign=top;fillColor=#f8cecc;" parent="1" vertex="1">
          <mxGeometry x="1447" y="461" width="246" height="122" as="geometry" />
        </mxCell>
        <mxCell id="bZlDuSdulc7KowGW-_eb-3" style="edgeStyle=orthogonalEdgeStyle;rounded=0;orthogonalLoop=1;jettySize=auto;html=1;exitX=1;exitY=0.25;exitDx=0;exitDy=0;entryX=0;entryY=0.25;entryDx=0;entryDy=0;strokeWidth=2;" edge="1" parent="1" source="Zatc0vboHGfkbghF3RjW-6" target="Zatc0vboHGfkbghF3RjW-7">
          <mxGeometry relative="1" as="geometry" />
        </mxCell>
        <mxCell id="Zatc0vboHGfkbghF3RjW-6" value="/views/customer&lt;br&gt;/index.jsp&lt;br&gt;1.在搜索框中输入家居名字&lt;br&gt;2.提交搜索条件给&lt;br&gt;/CustomerFurnServlet？action=pageByName&lt;br&gt;&amp;amp;name=XXX&lt;br&gt;&lt;br&gt;&lt;br&gt;&lt;br&gt;3.接收到page对象后，使用foreach标签循环显示&lt;br&gt;[每次点击分页导航都要将检索的条件带上]" style="rounded=0;whiteSpace=wrap;html=1;fontSize=17;fontStyle=1;align=left;verticalAlign=top;strokeColor=#999999;" parent="1" vertex="1">
          <mxGeometry x="569" y="160" width="210" height="301" as="geometry" />
        </mxCell>
        <mxCell id="Zatc0vboHGfkbghF3RjW-17" style="edgeStyle=orthogonalEdgeStyle;rounded=0;orthogonalLoop=1;jettySize=auto;html=1;entryX=0;entryY=0.25;entryDx=0;entryDy=0;fontSize=17;strokeColor=default;strokeWidth=2;exitX=1;exitY=0.5;exitDx=0;exitDy=0;" parent="1" source="Zatc0vboHGfkbghF3RjW-7" target="8VZ2lhoY9Nfm3T2TA_DG-7" edge="1">
          <mxGeometry relative="1" as="geometry">
            <mxPoint x="1120" y="288" as="sourcePoint" />
          </mxGeometry>
        </mxCell>
        <mxCell id="bZlDuSdulc7KowGW-_eb-2" style="edgeStyle=orthogonalEdgeStyle;rounded=0;orthogonalLoop=1;jettySize=auto;html=1;exitX=0;exitY=0.75;exitDx=0;exitDy=0;entryX=1;entryY=0.75;entryDx=0;entryDy=0;strokeWidth=2;" edge="1" parent="1" source="Zatc0vboHGfkbghF3RjW-7" target="Zatc0vboHGfkbghF3RjW-6">
          <mxGeometry relative="1" as="geometry" />
        </mxCell>
        <mxCell id="Zatc0vboHGfkbghF3RjW-7" value="CustomerFurnServlet&lt;br&gt;请求分页显示家居信息,带搜索条件（按照家居名）&lt;br&gt;&amp;nbsp;pageByName()&lt;br&gt;1.获取pageNo，pageSize&lt;br&gt;2.调用FurnService.&lt;br&gt;pageByName()&lt;br&gt;，得到要显示的page数据，并放入到request域&lt;br&gt;3.请求转发到&lt;br&gt;/views/customer/index.jsp,在该页面显示furn信息" style="rounded=0;whiteSpace=wrap;html=1;fontSize=17;align=left;verticalAlign=top;fontStyle=1;strokeColor=#999999;" parent="1" vertex="1">
          <mxGeometry x="914.25" y="119" width="208.75" height="288" as="geometry" />
        </mxCell>
        <mxCell id="sAvUuzzA0ZJwsFMWrOZG-2" value="Page.java-分页的各个信息&lt;br&gt;pageSize，pageNo&lt;br&gt;items该页要显示的Furn集合" style="rounded=0;whiteSpace=wrap;html=1;labelBorderColor=none;fontSize=17;strokeColor=#999999;fontStyle=1" parent="1" vertex="1">
          <mxGeometry x="1458.5" y="498" width="223" height="72" as="geometry" />
        </mxCell>
      </root>
    </mxGraphModel>
  </diagram>
</mxfile>
